HIERARCHY
ROOT Root
{
	OFFSET 0.00000 0.00000 0.00000
	CHANNELS 6 Xposition Yposition Zposition Zrotation Xrotation Yrotation
	JOINT Hips
	{
		OFFSET 0 0 0	
		CHANNELS 3 Zrotation Xrotation Yrotation
		JOINT Spine1
		{
			OFFSET 0 4 0	
			CHANNELS 3 Zrotation Xrotation Yrotation
			JOINT Spine2
			{
				OFFSET 0 19.4 0	
				CHANNELS 3 Zrotation Xrotation Yrotation
				JOINT Spine3
				{
					OFFSET 0 16.6 0	
					CHANNELS 3 Zrotation Xrotation Yrotation
					JOINT LeftCollar
					{
						OFFSET 0 10 0	
						CHANNELS 3 Zrotation Xrotation Yrotation
						JOINT LeftArm
						{
							OFFSET 15.6 -2 0	
							CHANNELS 3 Zrotation Xrotation Yrotation
							JOINT LeftForeArm
							{
								OFFSET 2.6 -25.5 0	
								CHANNELS 3 Zrotation Xrotation Yrotation
								JOINT LeftHand
								{
									OFFSET 0.65 -31.1 0	
									CHANNELS 3 Zrotation Xrotation Yrotation
									End Site
									{
										OFFSET 0 -15 0
									}
								}
							}
						}
					}
					JOINT RightCollar
					{
						OFFSET 0 10 0	
						CHANNELS 3 Zrotation Xrotation Yrotation
						JOINT RightArm
						{
							OFFSET -15.6 -2 0	
							CHANNELS 3 Zrotation Xrotation Yrotation
							JOINT RightForeArm
							{
								OFFSET -2.6 -25.5 0	
								CHANNELS 3 Zrotation Xrotation Yrotation
								JOINT RightHand
								{
									OFFSET -0.65 -31.1 0	
									CHANNELS 3 Zrotation Xrotation Yrotation
									End Site
									{
										OFFSET 0 -15 0
									}
								}
							}
						}
					}
					JOINT Neck
					{
						OFFSET 0 10 0	
						CHANNELS 3 Zrotation Xrotation Yrotation
						JOINT Head
						{
							OFFSET 0 12.7 0	
							CHANNELS 3 Zrotation Xrotation Yrotation
							End Site
							{
								OFFSET 0 12.7 1.56
							}
						}
					}
				}
			}
		}
	}
	JOINT LeftHip
	{
		OFFSET 0 0 0	
		CHANNELS 3 Zrotation Xrotation Yrotation
		JOINT LeftUpLeg
		{
			OFFSET 8.8 -2 0	
			CHANNELS 3 Zrotation Xrotation Yrotation
			JOINT LeftLeg
			{
				OFFSET 0 -42.2 0	
				CHANNELS 3 Zrotation Xrotation Yrotation
				JOINT LeftFoot
				{
					OFFSET 0 -44.3 0	
					CHANNELS 3 Zrotation Xrotation Yrotation
					JOINT LeftFootFront
					{
						OFFSET 0 -4 10.47	
						CHANNELS 3 Zrotation Xrotation Yrotation
						End Site
						{
							OFFSET 0 -3.45 9.31
						}
					}
				}
				JOINT LeftHeel
				{
					OFFSET 0 -44.3 0	
					CHANNELS 3 Zrotation Xrotation Yrotation
					End Site
					{
						OFFSET 0 -6.35 -5.92
					}
				}
			}
		}
	}
	JOINT RightHip
	{
		OFFSET 0 0 0	
		CHANNELS 3 Zrotation Xrotation Yrotation
		JOINT RightUpLeg
		{
			OFFSET -8.8 -2 0	
			CHANNELS 3 Zrotation Xrotation Yrotation
			JOINT RightLeg
			{
				OFFSET 0 -42.2 0	
				CHANNELS 3 Zrotation Xrotation Yrotation
				JOINT RightFoot
				{
					OFFSET 0 -44.3 0	
					CHANNELS 3 Zrotation Xrotation Yrotation
					JOINT RightFootFront
					{
						OFFSET 0 -4 10.47	
						CHANNELS 3 Zrotation Xrotation Yrotation
						End Site
						{
							OFFSET 0 -3.45 9.31
						}
					}
				}
				JOINT RightHeel
				{
					OFFSET 0 -44.3 0	
					CHANNELS 3 Zrotation Xrotation Yrotation
					End Site
					{
						OFFSET 0 -6.35 -5.92
					}
				}
			}
		}
	}
}
MOTION
Frames: 19
Frame Time: 0.025
0 95.646 0 -0 0 -0 -0.49401 0.39763 0.10885 -0.020197 -0.27155 -0.3238 -0.033782 -0.44348 -0.52893 -0.013977 -0.1901 -0.22665 -0 0 -0 0.057552 0.089667 0.48516 -0.014487 0.81848 0.17638 0 0 -1.0422e-09 -0 0 -0 0.29671 0.40003 1.2518 -0.11783 0.45708 0.99817 -0 0 2.9494e-08 -0.18442 0.59883 0.80567 -0.18442 0.59883 0.80567 -0.49401 0.39763 0.10885 0.65523 1.145 3.9959 1.1434 -2.5307 -0.61826 -0 0 -0 -0 0 3.1683e-08 -0 0 -0 -0.49401 0.39763 0.10885 0.6359 0.68137 3.2011 0.48453 -1.525 -1.7151 -0 0 -0 1.7765e-10 -0.56128 3.627e-08 -0 0 -0 
0 95.649 0 -0 0 -0 -0.49918 0.41489 0.10289 -0.018472 -0.26874 -0.32575 -0.030961 -0.43889 -0.53211 -0.01277 -0.18813 -0.22802 -0 0 -0 0.054073 0.06596 0.48712 -0.012568 0.81874 0.17545 0 0 -8.7545e-09 -0 0 -0 0.2924 0.38839 1.2394 -0.12452 0.47784 0.99421 0 0 -4.7733e-08 -0.18434 0.59139 0.81057 -0.18434 0.59139 0.81057 -0.49918 0.41489 0.10289 0.64102 1.1547 3.9831 1.1458 -2.5418 -0.60555 -0 0 -0 0 0 -1.5008e-08 -0 0 -0 -0.49918 0.41489 0.10289 0.62946 0.67476 3.1852 0.47866 -1.5323 -1.708 -0 0 -0 -3.2874e-11 -0.56475 -6.6704e-09 -0 0 -0 
0 95.653 0 -0 0 -0 -0.50471 0.4376 0.09915 -0.016155 -0.26611 -0.33134 -0.027183 -0.43461 -0.54124 -0.011147 -0.18629 -0.23193 -0 0 -0 0.042842 0.045317 0.48921 -0.0060433 0.81605 0.18548 0 0 -1.2715e-08 -0 0 -0 0.28414 0.37571 1.2313 -0.13141 0.50841 0.98039 -0 0 3.0328e-08 -0.18464 0.58031 0.81965 -0.18464 0.58031 0.81965 -0.50471 0.4376 0.09915 0.6175 1.1698 3.9688 1.1505 -2.5611 -0.59572 -0 0 -0 -0 0 4.3356e-08 -0 0 -0 -0.50471 0.4376 0.09915 0.61974 0.67584 3.1637 0.46935 -1.5509 -1.6944 -0 0 -0 -5.664e-10 -0.57027 -1.1381e-07 -0 0 -0 
0 95.657 0 -0 0 -0 -0.51123 0.45779 0.10065 -0.012943 -0.26258 -0.34029 -0.021947 -0.42885 -0.55584 -0.0088964 -0.18382 -0.2382 -0 0 -0 0.029543 0.030792 0.48753 -0.00070774 0.81134 0.21537 0 0 -2.0844e-10 -0 0 -0 0.2717 0.35981 1.2259 -0.13356 0.54256 0.97124 -0 0 1.4174e-08 -0.18693 0.56158 0.83014 -0.18693 0.56158 0.83014 -0.51123 0.45779 0.10065 0.5914 1.1864 3.9643 1.1568 -2.5773 -0.60171 -0 0 -0 0 0 -6.7535e-08 -0 0 -0 -0.51123 0.45779 0.10065 0.60884 0.68278 3.1495 0.4595 -1.5703 -1.6855 -0 0 -0 5.4011e-08 -0.57811 1.2867e-07 -0 0 -0 
0 95.662 0 -0 0 -0 -0.52067 0.47411 0.10653 -0.0089493 -0.2563 -0.35071 -0.015429 -0.41859 -0.57286 -0.0060998 -0.17941 -0.24549 -0 0 -0 0.025348 0.010989 0.49561 -0.0046507 0.80749 0.23874 0 0 -1.1464e-08 -0 0 -0 0.25872 0.33863 1.2206 -0.13474 0.57634 0.97939 -0 0 3.3142e-08 -0.18972 0.53188 0.83893 -0.18972 0.53188 0.83893 -0.52067 0.47411 0.10653 0.56671 1.2052 3.963 1.1662 -2.5875 -0.62218 -0 0 -0 6.9537e-11 -0.092787 8.5878e-08 -0 0 -0 -0.52067 0.47411 0.10653 0.59818 0.68778 3.142 0.45037 -1.5819 -1.6843 -0 0 -0 7.4811e-11 -0.58751 1.4591e-08 -0 0 -0 
0 95.669 0 -0 0 -0 -0.53412 0.49014 0.11611 -0.0023409 -0.24861 -0.36135 -0.0046347 -0.40605 -0.59022 -0.001474 -0.17403 -0.25294 -0 0 -0 0.019311 -0.015598 0.53433 -0.014337 0.80568 0.22804 -0 0 1.2715e-08 -0 0 -0 0.24174 0.31795 1.2189 -0.14143 0.60814 0.99023 0 0 -2.5221e-08 -0.19543 0.49478 0.84547 -0.19543 0.49478 0.84547 -0.53412 0.49014 0.11611 0.54448 1.2235 3.9619 1.1766 -2.5992 -0.66107 -0 0 -0 -1.0677e-07 -0.12033 -4.9304e-08 -0 0 -0 -0.53412 0.49014 0.11611 0.58989 0.69009 3.1301 0.44102 -1.5887 -1.6846 -0 0 -0 5.8909e-11 -0.5997 1.1256e-08 -0 0 -0 
0 95.676 0 -0 0 -0 -0.55005 0.5038 0.12575 0.0070021 -0.23735 -0.36942 0.010645 -0.3877 -0.60338 0.0050622 -0.16614 -0.2586 -0 0 -0 0.0043037 -0.044878 0.56559 -0.027311 0.79922 0.2247 -0 0 4.5857e-09 -0 0 -0 0.21663 0.29507 1.2292 -0.14989 0.63723 0.97451 -0 0 6.4617e-09 -0.2058 0.45071 0.84994 -0.2058 0.45071 0.84994 -0.55005 0.5038 0.12575 0.5248 1.2409 3.967 1.1803 -2.5981 -0.69303 -0 0 -0 -2.1386e-07 -0.15577 -3.0378e-07 -0 0 -0 -0.55005 0.5038 0.12575 0.5828 0.69288 3.1129 0.43007 -1.5892 -1.6838 -0 0 -0 -5.1358e-10 -0.61644 -9.547e-08 -0 0 -0 
0 95.685 0 -0 0 -0 -0.56559 0.51094 0.13016 0.015282 -0.22014 -0.37178 0.024221 -0.35962 -0.60723 0.010847 -0.15409 -0.26026 -0 0 -0 -0.0057324 -0.073813 0.55049 -0.044855 0.77887 0.26422 -0 0 6.6701e-09 -0 0 -0 0.1878 0.26391 1.2456 -0.1565 0.66315 0.94414 0 0 -4.544e-08 -0.21073 0.40081 0.8512 -0.21073 0.40081 0.8512 -0.56559 0.51094 0.13016 0.50556 1.2629 3.9748 1.1763 -2.5919 -0.72241 -0 0 -0 4.2528e-12 -0.19483 2.5013e-09 -0 0 -0 -0.56559 0.51094 0.13016 0.57303 0.70529 3.095 0.4153 -1.5825 -1.6773 -0 0 -0 -5.3263e-08 -0.64285 1.7627e-08 -0 0 -0 
0 95.695 0 -0 0 -0 -0.58005 0.51542 0.12619 0.018759 -0.20113 -0.3661 0.029975 -0.32857 -0.59794 0.013266 -0.14078 -0.25628 -0 0 -0 0.003217 -0.097681 0.5071 -0.068132 0.7487 0.30535 0 0 -6.0448e-09 -0 0 -0 0.16959 0.23351 1.2392 -0.16819 0.68633 0.93391 -0 0 2.6264e-08 -0.19889 0.35529 0.8447 -0.19889 0.35529 0.8447 -0.58005 0.51542 0.12619 0.48287 1.2904 3.9865 1.1702 -2.591 -0.76047 -0 0 -0 -1.5779e-10 -0.2307 -7.8374e-08 -0 0 -0 -0.58005 0.51542 0.12619 0.55749 0.72155 3.08 0.39982 -1.5659 -1.6681 -0 0 -0 5.3423e-08 -0.68041 1.0323e-08 -0 0 -0 
0 95.708 0 -0 0 -0 -0.59695 0.52622 0.11359 0.01943 -0.18588 -0.35426 0.031142 -0.30367 -0.5786 0.013722 -0.1301 -0.24799 -0 0 -0 0.021503 -0.11656 0.46954 -0.091466 0.71959 0.31236 -0 0 1.3132e-08 -0 0 -0 0.16092 0.20894 1.2048 -0.18013 0.71312 0.93744 -0 0 3.21e-08 -0.17673 0.32241 0.83064 -0.17673 0.32241 0.83063 -0.59695 0.52622 0.11359 0.45595 1.3182 4.0062 1.17 -2.5956 -0.81343 -0 0 -0 3.8854e-10 -0.26834 1.6592e-07 -0 0 -0 -0.59695 0.52622 0.11359 0.53525 0.72872 3.0666 0.38903 -1.539 -1.6653 -0 0 -0 -2.3765e-10 -0.72578 -3.7522e-08 -0 0 -0 
0 95.722 0 -0 0 -0 -0.62079 0.54045 0.086012 0.020378 -0.17269 -0.33866 0.032757 -0.28213 -0.55311 0.014372 -0.12087 -0.23707 -0 0 -0 0.038523 -0.13183 0.44102 -0.11076 0.69012 0.31976 0 0 -7.5039e-09 -0 0 -0 0.15658 0.18553 1.1736 -0.18799 0.74585 0.92718 0 0 -1.209e-08 -0.1545 0.29805 0.81275 -0.1545 0.29805 0.81275 -0.62079 0.54045 0.086012 0.428 1.353 4.0297 1.1778 -2.605 -0.87631 -0 0 -0 -4.5243e-11 -0.3109 -1.6675e-08 -0 0 -0 -0.62079 0.54045 0.086012 0.50879 0.73479 3.0629 0.38593 -1.5114 -1.6724 -0 0 -0 -2.6994e-08 -0.77481 -4.6249e-08 -0 0 -0 
0 95.74 0 -0 0 -0 -0.65033 0.5585 0.04152 0.021812 -0.16118 -0.31974 0.035161 -0.26333 -0.52222 0.015363 -0.11281 -0.22383 -0 0 -0 0.052278 -0.14542 0.40823 -0.12364 0.65759 0.359 0 0 -7.087e-09 -0 0 -0 0.1548 0.16444 1.1656 -0.19927 0.78146 0.90006 -0 0 1.1673e-08 -0.13504 0.27613 0.78962 -0.13504 0.27613 0.78962 -0.65033 0.5585 0.04152 0.39865 1.3943 4.0516 1.188 -2.624 -0.94273 -0 0 -0 -1.063e-07 -0.35553 1.3724e-07 -0 0 -0 -0.65033 0.5585 0.04152 0.48049 0.73965 3.0649 0.38691 -1.4836 -1.6814 -0 0 -0 -2.5871e-08 -0.82638 1.1237e-07 -0 0 -0 
0 95.761 0 -0 0 -0 -0.67875 0.58303 -0.020972 0.021806 -0.1517 -0.29754 0.03521 -0.24784 -0.48595 0.015347 -0.10618 -0.20828 -0 0 -0 0.063183 -0.1656 0.37921 -0.12965 0.62551 0.40433 -0 0 6.2532e-10 -0 0 -0 0.1558 0.14661 1.1749 -0.21666 0.81578 0.86196 -0 0 2.1678e-08 -0.11907 0.25169 0.76428 -0.11907 0.25169 0.76428 -0.67875 0.58303 -0.020972 0.35987 1.4347 4.0898 1.1946 -2.6451 -1.0121 -0 0 -0 1.0684e-07 -0.40397 3.2894e-08 -0 0 -0 -0.67875 0.58303 -0.020972 0.44977 0.7249 3.0581 0.38528 -1.436 -1.6905 -0 0 -0 -2.6099e-08 -0.88448 7.5465e-08 -0 0 -0 
0 95.785 0 -0 0 -0 -0.70235 0.60796 -0.092708 0.019385 -0.14128 -0.27597 0.031311 -0.2308 -0.45074 0.013641 -0.098885 -0.19319 -0 0 -0 0.072535 -0.19599 0.36005 -0.13437 0.5938 0.43563 0 0 -8.7545e-09 -0 0 -0 0.1647 0.12933 1.19 -0.23976 0.84204 0.81162 -0 0 2.5013e-09 -0.10849 0.22172 0.74523 -0.10849 0.22172 0.74523 -0.70235 0.60796 -0.092708 0.3145 1.4646 4.1497 1.1867 -2.6268 -1.0917 -0 0 -0 1.0676e-07 -0.48133 8.7861e-09 -0 0 -0 -0.70235 0.60796 -0.092708 0.41758 0.68123 3.036 0.37512 -1.3518 -1.6935 -0 0 -0 -1.3242e-08 -0.30964 3.6233e-08 -0 0 -0 
0 95.813 0 -0 0 -0 -0.72043 0.61696 -0.16241 0.014363 -0.12562 -0.25666 0.023169 -0.20521 -0.4192 0.010113 -0.087926 -0.17967 -0 0 -0 0.087908 -0.23133 0.33325 -0.14706 0.56029 0.4669 -0 0 6.2532e-10 -0 0 -0 0.17814 0.10816 1.1965 -0.26662 0.85929 0.76213 -0 0 3.1683e-08 -0.10399 0.18891 0.73471 -0.10399 0.18891 0.73471 -0.72043 0.61696 -0.16241 0.27255 1.4814 4.1998 1.1603 -2.5603 -1.2161 -0 0 -0 5.3825e-08 -0.57709 9.1986e-08 -0 0 -0 -0.72043 0.61696 -0.16241 0.38668 0.63189 2.9957 0.34964 -1.2293 -1.6712 -0 0 -0 -5.1026e-12 -0.33746 -1.7327e-09 -0 0 -0 
0 95.846 0 -0 0 -0 -0.73598 0.61058 -0.22782 0.0080787 -0.10751 -0.23981 0.012963 -0.17562 -0.39168 0.0057023 -0.075255 -0.16787 -0 0 -0 0.11494 -0.25155 0.29329 -0.17476 0.51392 0.50448 -0 0 1.2715e-08 -0 0 -0 0.18831 0.083578 1.1842 -0.29416 0.87642 0.73763 -0 0 1.7509e-08 -0.10587 0.16257 0.73384 -0.10587 0.16257 0.73384 -0.73598 0.61058 -0.22782 0.2319 1.4868 4.2259 1.1294 -2.4248 -1.3343 -0 0 -0 4.3974e-10 -0.71518 7.0457e-08 -0 0 -0 -0.73598 0.61058 -0.22782 0.36041 0.5895 2.9557 0.30916 -1.0769 -1.634 -0 0 -0 5.2409e-11 -0.36099 1.6636e-08 -0 0 -0 
0 95.884 0 -0 0 -0 -0.7486 0.6004 -0.28833 0.00063563 -0.08743 -0.22787 0.00085846 -0.1428 -0.37219 0.00048145 -0.061201 -0.15951 -0 0 -0 0.15147 -0.24586 0.24157 -0.21842 0.43754 0.54125 0 0 -1.1673e-08 -0 0 -0 0.19724 0.048428 1.1507 -0.31978 0.89451 0.72956 -0 0 7.5039e-09 -0.11156 0.14066 0.74341 -0.11156 0.14066 0.74341 -0.7486 0.6004 -0.28833 0.18549 1.4709 4.2345 1.1023 -2.2102 -1.4493 -0 0 -0 7.918e-10 -0.90677 1.0006e-07 -0 0 -0 -0.7486 0.6004 -0.28833 0.33186 0.5385 2.9272 0.26108 -0.88667 -1.5944 -0 0 -0 6.7159e-09 -0.38359 1.3675e-08 -0 0 -0 
0 95.926 0 -0 0 -0 -0.75538 0.58112 -0.34084 -0.010044 -0.058975 -0.22032 -0.016523 -0.096307 -0.35986 -0.0070072 -0.041287 -0.15422 -0 0 -0 0.19639 -0.21362 0.15837 -0.27313 0.31841 0.59171 -0 0 5.0026e-09 -0 0 -0 0.20996 -0.0066439 1.1203 -0.34321 0.90721 0.69015 -0 0 1.8343e-08 -0.11329 0.11193 0.75408 -0.11329 0.11193 0.75408 -0.75538 0.58112 -0.34084 0.12738 1.4323 4.2193 1.0792 -1.9306 -1.5998 -0 0 -0 5.2603e-08 -1.1318 -7.7024e-08 -0 0 -0 -0.75538 0.58112 -0.34084 0.2929 0.47977 2.8841 0.20894 -0.64962 -1.5235 -0 0 -0 2.8164e-10 -0.43656 7.3926e-08 -0 0 -0 
0 95.973 0 -0 0 -0 -0.75778 0.53976 -0.38865 -0.022602 -0.020572 -0.21367 -0.036956 -0.033558 -0.34899 -0.015813 -0.014409 -0.14957 -0 0 -0 0.24367 -0.1658 0.05022 -0.33006 0.17525 0.65623 -0 0 1.1256e-08 -0 0 -0 0.21249 -0.07506 1.1262 -0.36297 0.91705 0.60616 -0 0 1.4174e-08 -0.11234 0.078111 0.75698 -0.11234 0.078111 0.75698 -0.75778 0.53976 -0.38865 0.061878 1.3833 4.1724 1.0482 -1.5675 -1.7262 -0 0 -0 -5.6274e-08 -1.4063 -2.3708e-07 -0 0 -0 -0.75778 0.53976 -0.38865 0.24702 0.4283 2.8265 0.14481 -0.36636 -1.4141 -0 0 -0 2.692e-08 -0.50937 5.3846e-08 -0 0 -0 
